<?xml version="1.0" encoding="utf-8"?>
<svg version="1.1" xmlns:xlink="http://www.w3.org/1999/xlink" width="613px" height="10px" preserveAspectRatio="xMinYMid meet" viewBox="532 1138  613 8" xmlns="http://www.w3.org/2000/svg">
  <path d="M 535.481584090388 1109.66512916106  A 3 3 0 0 1 537.5 1112.5 L 537.5 1137  A 5 5 0 0 0 542.5 1142.5 L 1140 1142.5  " stroke-width="1" stroke="#ff3399" fill="none" />
  <path d="M 537.024412954424 1107.8790930824  A 3 3 0 0 0 534.024412954424 1110.8790930824 A 3 3 0 0 0 537.024412954424 1113.8790930824 A 3 3 0 0 0 540.024412954424 1110.8790930824 A 3 3 0 0 0 537.024412954424 1107.8790930824 Z M 1139 1148.8  L 1145 1142.5  L 1139 1136.2  L 1139 1148.8  Z " fill-rule="nonzero" fill="#ff3399" stroke="none" />
</svg>