<?xml version="1.0" encoding="utf-8"?>
<svg version="1.1" xmlns:xlink="http://www.w3.org/1999/xlink" width="10px" height="319px" preserveAspectRatio="xMidYMin meet" viewBox="520 1109  8 319" xmlns="http://www.w3.org/2000/svg">
  <path d="M 532 1114.5  L 529 1114.5  A 5 5 0 0 0 524.5 1119.5 L 524.5 1418  A 5 5 0 0 0 529.5 1423.5 L 560 1423.5  " stroke-width="1" stroke="#ff3399" fill="none" />
  <path d="M 530 1111.5  A 3 3 0 0 0 527 1114.5 A 3 3 0 0 0 530 1117.5 A 3 3 0 0 0 533 1114.5 A 3 3 0 0 0 530 1111.5 Z M 559 1429.8  L 565 1423.5  L 559 1417.2  L 559 1429.8  Z " fill-rule="nonzero" fill="#ff3399" stroke="none" />
</svg>