<?xml version="1.0" encoding="utf-8"?>
<svg version="1.1" xmlns:xlink="http://www.w3.org/1999/xlink" width="10px" height="334px" preserveAspectRatio="xMidYMin meet" viewBox="526 1109  8 334" xmlns="http://www.w3.org/2000/svg">
  <path d="M 532.518415909612 1114.66512916106  A 3 3 0 0 0 530.5 1117.5 L 530.5 1433  A 5 5 0 0 0 535.5 1438.5 L 560 1438.5  " stroke-width="1" stroke="#ff3399" fill="none" />
  <path d="M 530.975587045576 1112.8790930824  A 3 3 0 0 0 527.975587045576 1115.8790930824 A 3 3 0 0 0 530.975587045576 1118.8790930824 A 3 3 0 0 0 533.975587045576 1115.8790930824 A 3 3 0 0 0 530.975587045576 1112.8790930824 Z M 559 1444.8  L 565 1438.5  L 559 1432.2  L 559 1444.8  Z " fill-rule="nonzero" fill="#ff3399" stroke="none" />
</svg>