<?xml version="1.0" encoding="utf-8"?>
<svg version="1.1" xmlns:xlink="http://www.w3.org/1999/xlink" width="25px" height="25px" xmlns="http://www.w3.org/2000/svg">
  <g transform="matrix(1 0 0 1 -1790 -3383 )">
    <path d="M 1790 3383  L 1815 3383  L 1815 3408  L 1790 3408  L 1790 3383  " fill-rule="nonzero" fill="#cccccc" stroke="none" />
    <path d="M 1792 3385  L 1813 3385  L 1813 3406  L 1792 3406  L 1792 3385  " fill-rule="nonzero" fill="#ffffff" stroke="none" />
    <path d="M 1804.875 3390.5  C 1803.825 3390.5  1803 3389.675  1803 3388.625  C 1803 3387.575  1803.825 3386.75  1804.875 3386.75  C 1805.925 3386.75  1806.75 3387.575  1806.75 3388.625  C 1806.75 3389.675  1805.925 3390.5  1804.875 3390.5  " fill-rule="nonzero" fill="#cccccc" stroke="none" />
    <path d="M 1793 3406  L 1793 3395  L 1798 3390  L 1805 3394  L 1809 3393  L 1813 3394  L 1813 3406  L 1793 3406  " fill-rule="nonzero" fill="#169bd5" stroke="none" />
  </g>
</svg>