<?xml version="1.0" encoding="utf-8"?>
<svg version="1.1" xmlns:xlink="http://www.w3.org/1999/xlink" width="10px" height="412px" preserveAspectRatio="xMidYMin meet" viewBox="1900 1235  8 412" xmlns="http://www.w3.org/2000/svg">
  <path d="M 1903.45885107721 1240.74483487622  A 2 2 0 0 1 1904.5 1242.5 L 1904.5 1637  A 5 5 0 0 1 1899.5 1642.5 L 1689 1642.5  " stroke-width="1" stroke="#ff3399" fill="none" />
  <path d="M 1904.49498997321 1239.35852559666  A 3 3 0 0 0 1901.49498997321 1242.35852559666 A 3 3 0 0 0 1904.49498997321 1245.35852559666 A 3 3 0 0 0 1907.49498997321 1242.35852559666 A 3 3 0 0 0 1904.49498997321 1239.35852559666 Z M 1690 1636.2  L 1684 1642.5  L 1690 1648.8  L 1690 1636.2  Z " fill-rule="nonzero" fill="#ff3399" stroke="none" />
</svg>