<?xml version="1.0" encoding="utf-8"?>
<svg version="1.1" xmlns:xlink="http://www.w3.org/1999/xlink" width="110px" height="53px" xmlns="http://www.w3.org/2000/svg">
  <g transform="matrix(1 0 0 1 -354 -461 )">
    <path d="M 409 461  C 439.8 461  464 472.66  464 487.5  C 464 502.34  439.8 514  409 514  C 378.2 514  354 502.34  354 487.5  C 354 472.66  378.2 461  409 461  Z " fill-rule="nonzero" fill="#ffffff" stroke="none" />
    <path d="M 409 461.5  C 439.52 461.5  463.5 472.94  463.5 487.5  C 463.5 502.06  439.52 513.5  409 513.5  C 378.48 513.5  354.5 502.06  354.5 487.5  C 354.5 472.94  378.48 461.5  409 461.5  Z " stroke-width="1" stroke="#797979" fill="none" />
  </g>
</svg>