<?xml version="1.0" encoding="utf-8"?>
<svg version="1.1" xmlns:xlink="http://www.w3.org/1999/xlink" width="22px" height="22px" xmlns="http://www.w3.org/2000/svg">
  <g transform="matrix(1 0 0 1 -1304 -1136 )">
    <path d="M 1304 1136  L 1326 1136  L 1326 1158  L 1304 1158  L 1304 1136  " fill-rule="nonzero" fill="#cccccc" stroke="none" />
    <path d="M 1306 1138  L 1324 1138  L 1324 1156  L 1306 1156  L 1306 1138  " fill-rule="nonzero" fill="#ffffff" stroke="none" />
    <path d="M 1317.09 1142.6  C 1316.166 1142.6  1315.44 1141.874  1315.44 1140.95  C 1315.44 1140.026  1316.166 1139.3  1317.09 1139.3  C 1318.014 1139.3  1318.74 1140.026  1318.74 1140.95  C 1318.74 1141.874  1318.014 1142.6  1317.09 1142.6  " fill-rule="nonzero" fill="#cccccc" stroke="none" />
    <path d="M 1307 1156  L 1307 1146.65  L 1311.25 1142.4  L 1317.2 1145.8  L 1320.6 1144.95  L 1324 1145.8  L 1324 1156  L 1307 1156  " fill-rule="nonzero" fill="#169bd5" stroke="none" />
  </g>
</svg>